<?xml version="1.0" encoding="UTF-8"?>
<svg width="89px" height="89px" viewBox="0 0 89 89" version="1.1" xmlns="http://www.w3.org/2000/svg" xmlns:xlink="http://www.w3.org/1999/xlink">
    <title>Group</title>
    <g id="Page-1" stroke="none" stroke-width="1" fill="none" fill-rule="evenodd">
        <g id="Group" transform="translate(0.051150, 0.665645)">
            <path d="M0.0274500161,45.663655 C0.0274500161,37.375655 -0.0455499839,29.087655 0.0474500161,20.800655 C0.143450016,12.192655 4.82345002,7.28365499 13.48045,6.87665499 C15.92045,6.76165499 17.02545,6.10565499 17.38145,3.61265499 C17.66845,1.60165499 18.72745,-0.300345005 21.32745,0.0396549949 C23.68045,0.348654995 24.06445,2.18665499 24.00645,4.12565499 C23.93645,6.43665499 25.28545,6.85965499 27.20245,6.81765499 C29.85845,6.75965499 32.51945,6.74165499 35.17445,6.82665499 C37.40445,6.89765499 39.08845,6.66565499 39.04445,3.74865499 C39.01245,1.71765499 40.29045,0.122654995 42.36845,0.0936549949 C44.46345,0.0646549949 45.75445,1.65365499 45.73545,3.68165499 C45.71145,6.51865499 47.24245,6.94765499 49.54745,6.82765499 C51.53545,6.72465499 53.53545,6.74765499 55.52545,6.82165499 C58.44845,6.93165499 61.22645,7.18865499 61.10945,2.81465499 C61.07045,1.35865499 62.53445,0.0936549949 64.20045,0.0756549949 C66.12345,0.0556549949 67.56545,1.46565499 67.53945,3.14265499 C67.47745,6.92565499 69.74545,6.78665499 72.42045,6.85265499 C79.75445,7.03265499 84.73145,12.175655 84.81145,19.538655 C84.87645,25.505655 84.81445,31.473655 84.82845,37.440655 C84.83245,39.577655 84.59645,41.607655 81.82845,41.636655 C79.09345,41.664655 78.71245,39.712655 78.71745,37.533655 C78.73045,32.229655 78.80045,26.923655 78.68745,21.621655 C78.59945,17.487655 77.21145,14.163655 72.55945,13.232655 C70.34645,12.789655 68.52245,12.537655 67.05945,15.038655 C65.38345,17.904655 63.15145,17.557655 61.11845,15.073655 C58.56245,11.952655 47.89145,11.839655 45.35845,15.024655 C43.47945,17.387655 41.77545,17.632655 39.71345,15.396655 C36.29445,11.689655 27.05645,11.821655 23.43445,15.584655 C21.72745,17.357655 19.55045,17.582655 18.41445,15.467655 C16.45745,11.826655 13.88045,13.019655 11.18245,13.829655 C7.96445002,14.795655 6.91045002,17.126655 6.92645002,20.290655 C6.97645002,29.904655 6.94345002,39.517655 6.94245002,49.131655 C6.94145002,55.927655 6.92645002,62.724655 6.94645002,69.519655 C6.96545002,76.183655 9.11745002,78.345655 15.95945,78.410655 C22.93545,78.476655 29.91345,78.421655 36.89045,78.427655 C39.26545,78.430655 41.95845,78.267655 41.78145,81.723655 C41.62345,84.830655 39.04345,84.505655 36.89745,84.511655 C29.25645,84.529655 21.61445,84.546655 13.97245,84.511655 C5.33145002,84.471655 0.147450016,79.317655 0.0484500161,70.526655 C-0.0465499839,62.240655 0.0274500161,53.951655 0.0274500161,45.663655" id="Fill-3" fill="#BEBEBE"></path>
            <path d="M67.85255,47.5899135 C79.09755,47.609955 87.80755,56.248955 87.7528091,67.326955 C87.69655,78.624955 78.8155485,87.431955 67.47355,87.4389581 C56.37655,87.444955 47.81855,78.747955 47.8155485,67.460955 C47.81155,55.522955 55.83255,47.568955 67.85255,47.5899135 Z M67.5887021,53.7300932 L67.29005,53.729955 C60.42205,53.808955 53.84705,60.499955 53.97105,67.283955 C54.10205,74.455955 60.20705,80.503955 67.35105,80.5381596 C75.43505,80.575955 80.79905,75.316955 80.8361791,67.317955 C80.86905,59.963955 74.57105,53.645955 67.29005,53.729955 Z" id="Combined-Shape" fill="#BEBEBE"></path>
            <path d="M62.55385,28.783255 C64.84785,28.925255 66.42185,30.055255 66.65485,32.266255 C66.91385,34.749255 65.46685,36.401255 63.01185,36.553255 C60.51285,36.708255 58.99485,35.150255 58.95485,32.677255 C58.91785,30.404255 60.44185,29.217255 62.55385,28.783255" id="Fill-7" fill="#C2C2C2"></path>
            <path d="M20.92985,28.784255 C23.41185,29.053255 24.59785,30.713255 24.54485,32.787255 C24.49285,34.838255 23.31685,36.694255 20.86185,36.579255 C18.37185,36.464255 16.86485,34.934255 17.03785,32.403255 C17.19385,30.135255 18.76185,29.002255 20.92985,28.784255" id="Fill-9" fill="#C2C2C2"></path>
            <path d="M41.40835,28.820355 C44.08735,28.738355 45.32435,30.415355 45.51535,32.428355 C45.71335,34.506355 44.55735,36.385355 42.19835,36.563355 C39.67835,36.754355 38.10935,35.269355 37.99935,32.772355 C37.89735,30.462355 39.42235,29.257355 41.40835,28.820355" id="Fill-11" fill="#C2C2C2"></path>
            <path d="M21.14665,60.547355 C23.00265,60.686355 24.68265,61.880355 24.66765,64.075355 C24.64965,66.521355 22.68165,67.963355 20.39865,67.914355 C18.25965,67.868355 16.84965,66.408355 16.95665,63.989355 C17.06265,61.558355 18.39665,60.499355 21.14665,60.547355" id="Fill-13" fill="#C1C1C1"></path>
            <path d="M45.77355,47.842355 C45.51255,50.255355 44.41755,52.026355 42.25855,52.211355 C39.97255,52.407355 38.02555,51.236355 37.99655,48.587355 C37.97155,46.338355 39.34555,44.916355 41.59855,44.716355 C43.95255,44.507355 45.06855,46.080355 45.77355,47.842355" id="Fill-15" fill="#C2C2C2"></path>
            <path d="M24.67595,48.642155 C24.11695,50.902155 22.81695,52.501155 20.54295,52.225155 C18.49695,51.977155 16.72095,50.732155 17.02995,48.229155 C17.30795,45.973155 18.73095,44.651155 21.06695,44.722155 C23.57995,44.798155 24.21495,46.718155 24.67595,48.642155" id="Fill-17" fill="#C1C1C1"></path>
            <path d="M69.93965,70.585955 C67.47865,70.748955 65.19965,70.525955 64.43965,67.632955 C63.62565,64.524955 63.36665,61.344955 65.42465,58.649955 C67.00265,56.583955 69.89165,57.412955 70.71665,60.049955 C71.13565,61.387955 70.54865,63.103955 72.34765,63.864955 C74.41865,64.741955 76.47165,65.813955 75.48265,68.553955 C74.51765,71.225955 71.97465,70.414955 69.93965,70.585955" id="Fill-27" fill="#BFBFBF"></path>
        </g>
    </g>
</svg>