<?xml version="1.0" encoding="UTF-8"?>
<svg width="98px" height="43px" viewBox="0 0 98 43" version="1.1" xmlns="http://www.w3.org/2000/svg" xmlns:xlink="http://www.w3.org/1999/xlink">
    <title>Group 5</title>
    <g id="Page-1" stroke="none" stroke-width="1" fill="none" fill-rule="evenodd">
        <g id="Group-5" fill="#FF6819">
            <polygon id="Fill-1" points="6.003 7.0835 91.122 7.0835 91.122 0.0005 6.003 0.0005"></polygon>
            <polygon id="Fill-2" points="21.0096 13.9269 7.0826 13.9269 -0.0004 13.9269 -0.0004 21.0099 -0.0004 42.0199 7.0826 42.0199 7.0826 21.0099 21.0096 21.0099 21.0096 42.0199 28.0926 42.0199 28.0926 21.0099 28.0926 13.9269"></polygon>
            <polygon id="Fill-3" points="56.0664 13.9269 42.1394 13.9269 35.0564 13.9269 35.0564 21.0099 35.0564 42.0199 42.1394 42.0199 42.1394 21.0099 56.0664 21.0099 56.0664 42.0199 63.1494 42.0199 63.1494 21.0099 63.1494 13.9269"></polygon>
            <polygon id="Fill-4" points="90.7308 13.9269 76.5068 13.9269 69.2718 13.9269 69.2718 21.0099 69.2718 42.0199 76.5068 42.0199 76.5068 21.0099 90.7308 21.0099 90.7308 42.0199 97.9648 42.0199 97.9648 21.0099 97.9648 13.9269"></polygon>
        </g>
    </g>
</svg>