<svg xmlns="http://www.w3.org/2000/svg" width="21.832" height="15.854" viewBox="0 0 21.832 15.854"><defs><style>.a{opacity:0.5;}.b{fill:#313131;}</style></defs><g class="a"><path class="b" d="M67.052,117.794a.78.78,0,0,0,.78-.78v-3.9a4.683,4.683,0,0,0-2.583-4.182,2.6,2.6,0,1,0-4.191,0,4.635,4.635,0,0,0-.595.357A4.709,4.709,0,0,0,59.1,108.2a2.859,2.859,0,1,0-4.368,0,4.71,4.71,0,0,0-1.363,1.089,4.65,4.65,0,0,0-.6-.356,2.6,2.6,0,1,0-4.191,0A4.683,4.683,0,0,0,46,113.116v3.9a.78.78,0,0,0,.78.78h5.458v.78a.78.78,0,0,0,.78.78h7.8a.78.78,0,0,0,.78-.78v-.78Zm-4.938-10.4a1.04,1.04,0,1,1,1.04,1.04A1.041,1.041,0,0,1,62.114,107.4Zm1.04,2.6a3.122,3.122,0,0,1,3.119,3.119v3.119H61.594v-3.9a4.654,4.654,0,0,0-.323-1.707A3.1,3.1,0,0,1,63.153,110Zm-7.537-3.639a1.3,1.3,0,1,1,1.3,1.3A1.3,1.3,0,0,1,55.616,106.359Zm-5.978,1.04a1.04,1.04,0,1,1,1.04,1.04A1.041,1.041,0,0,1,49.639,107.4Zm-2.079,8.837v-3.119a3.118,3.118,0,0,1,5-2.486,4.654,4.654,0,0,0-.322,1.707v3.9Zm12.475,1.559H53.8v-5.458a3.119,3.119,0,1,1,6.238,0Z" transform="translate(-46 -103.5)"/></g></svg>