<?xml version="1.0" encoding="UTF-8"?>
<svg width="93px" height="100px" viewBox="0 0 93 100" version="1.1" xmlns="http://www.w3.org/2000/svg" xmlns:xlink="http://www.w3.org/1999/xlink">
    <title>Group 2</title>
    <g id="Page-1" stroke="none" stroke-width="1" fill="none" fill-rule="evenodd">
        <g id="Group-2" transform="translate(0.000028, 0.000125)" fill="#BEBEBE">
            <path d="M5.00057237,0.353475021 C9.58057237,2.28947502 14.1245724,4.31547502 18.7535724,6.12547502 C21.4069778,7.16244799 21.6122079,9.12393813 21.6224548,11.2705258 L21.6220522,11.8785248 C21.6216454,12.0144495 21.6213021,12.1508264 21.6215724,12.287475 C21.6385724,18.906475 21.6965724,18.680475 28.4575724,19.557475 C48.2925724,22.132475 68.1025724,24.889475 87.9165724,27.613475 C90.9105724,28.025475 92.5995724,29.485475 92.4925724,32.909475 C92.2905724,39.367475 92.4355724,45.836475 92.4365724,52.300475 C92.4365724,61.366475 87.9355724,65.974475 78.7305724,66.087475 C75.8557647,66.1224366 72.9807173,66.1357102 70.0284905,66.1381215 L68.0480609,66.1382386 C63.0641804,66.1351022 57.8184185,66.108475 51.9545724,66.108475 C44.0445724,65.567475 34.2295724,67.003475 24.4885724,65.427475 C22.6625724,65.131475 21.8295724,65.639475 21.5735724,67.658475 C20.8615724,73.271475 23.1905724,76.164475 28.9265724,76.177475 C45.0405724,76.214475 61.1545724,76.141475 77.2685724,76.211475 C85.7255724,76.248475 91.3295724,82.806475 89.5165724,90.314475 C88.0755724,96.277475 82.6505724,99.910475 76.4295724,99.077475 C70.5535724,98.291475 65.7925724,92.759475 66.7515724,86.718475 C67.3415724,83.002475 65.8645724,83.006475 63.2215724,83.063475 C58.5725724,83.163475 53.9185724,83.126475 49.2675724,83.076475 C49.1126189,83.0748006 48.961647,83.0728536 48.8150418,83.0717941 L48.5277679,83.071202 C46.7466859,83.0793003 45.7074096,83.3538704 46.1925724,86.252475 C46.9415724,90.729475 45.2845724,94.762475 41.1445724,97.289475 C37.1555724,99.723475 32.8945724,100.167475 28.9035724,97.629475 C24.6815724,94.945475 22.4955724,90.975475 23.5215724,85.788475 C23.9325724,83.708475 23.8775724,82.438475 21.4565724,81.300475 C15.9455724,78.709475 14.7275724,73.490475 14.7105724,67.963475 C14.6585724,50.891475 14.5655724,33.816475 14.7885724,16.747475 C14.8385724,12.982475 13.6895724,10.915475 10.1865724,9.74847502 C7.52257237,8.86047502 4.93557237,7.68347502 2.42157237,6.42247502 C0.754572366,5.58547502 -0.799427634,4.37247502 0.458572366,2.11247502 C1.46257237,0.307475021 2.91457237,-0.528524979 5.00057237,0.353475021 Z M78.6528925,83.0847094 L78.3933724,83.089375 C75.2143724,83.205375 73.4273724,84.704375 73.4983724,87.926375 C73.5653724,90.925375 75.7143724,92.524375 78.2673724,92.626375 C81.3053724,92.747375 82.8253724,90.475375 83.3183724,87.485375 C82.6799279,85.1374861 81.6838014,83.2007979 78.9029314,83.0897353 L78.6528925,83.0847094 Z M34.9843724,83.076675 C31.9403724,83.280675 29.7943724,84.744675 29.8523724,87.839675 C29.9023724,90.526675 31.7563724,92.654675 34.5003724,92.627675 C37.2993724,92.599675 39.4923724,90.949675 39.5203724,87.730675 C39.5453724,84.773675 37.8543724,83.303675 34.9843724,83.076675 Z M21.5712724,28.998275 C21.6832724,36.787275 21.5592724,44.580275 21.6262724,52.370275 C21.6692724,57.333275 23.5672724,59.218275 28.5872724,59.260275 C36.8942724,59.330275 45.2012724,59.280275 53.5082724,59.280275 C61.6492724,59.280275 69.7902724,59.306275 77.9302724,59.272275 C84.3492724,59.245275 86.1762724,57.461275 86.3392724,50.987275 C86.4342724,47.176275 86.0462724,43.329275 86.4392724,39.557275 C86.8992724,35.142275 84.8732724,33.893275 80.8982724,33.383275 C62.3732724,31.001275 43.8672724,28.463275 25.3822724,25.789275 C22.3802724,25.355275 21.5292724,26.117275 21.5712724,28.998275 Z" id="Combined-Shape"></path>
        </g>
    </g>
</svg>