<?xml version="1.0" encoding="UTF-8"?>
<svg width="66px" height="112px" viewBox="0 0 66 112" version="1.1" xmlns="http://www.w3.org/2000/svg" xmlns:xlink="http://www.w3.org/1999/xlink">
    <title>Artboard</title>
    <defs>
        <polygon id="path-1" points="5.49550655e-05 0 66.262 0 66.262 111.765 5.49550655e-05 111.765"></polygon>
    </defs>
    <g id="Artboard" stroke="none" stroke-width="1" fill="none" fill-rule="evenodd">
        <g id="Group-3">
            <mask id="mask-2" fill="white">
                <use xlink:href="#path-1"></use>
            </mask>
            <g id="Clip-2"></g>
            <path d="M66.25815,89.91195 C66.25965,97.18595 66.26115,104.46045 66.26215,111.73395 C58.36515,111.73595 50.46765,111.71395 42.57065,111.765126 C41.08415,111.77445 39.87615,111.39945 38.66415,110.51045 C29.88715,104.07495 21.07115,97.69245 12.24715,91.32195 C11.24565,90.59945 10.69665,89.70645 10.32315,88.54045 C7.03465,78.27045 3.71165,68.01045 0.34265,57.76595 C-0.09635,56.43145 -0.12285,55.23895 0.31765,53.90145 C3.71665,43.57945 7.07915,33.24545 10.40165,22.89845 C10.78115,21.71545 11.41965,20.88995 12.40615,20.17795 C21.02915,13.95445 29.64865,7.72495 38.21865,1.42945 C39.56665,0.43895 40.89565,-0.01205 42.56565,-0.000283095122 C50.46215,0.05745 58.35965,0.01395 66.25665,0.00595 C66.25715,7.22895 66.25715,14.45195 66.25765,21.67445 C60.61265,21.67095 54.96765,21.69595 49.32365,21.64095 C48.00565,21.62845 46.93915,21.98395 45.88315,22.76445 C40.87865,26.46145 35.84465,30.11995 30.78815,33.74545 C29.86215,34.40895 29.27565,35.17795 28.92965,36.26495 C27.04615,42.18495 25.12465,48.09295 23.17515,53.99145 C22.76565,55.23145 22.76965,56.38345 23.18165,57.62495 C25.11215,63.44295 27.01865,69.26895 28.86265,75.11495 C29.25965,76.37345 29.91665,77.26545 30.98965,78.02995 C35.98915,81.59345 40.96265,85.19445 45.88865,88.85845 C46.96165,89.65645 48.02315,89.94545 49.32415,89.93445 C54.96865,89.88645 60.61365,89.91245 66.25815,89.91195" id="Fill-1" fill="#D3DE03" mask="url(#mask-2)"></path>
        </g>
    </g>
</svg>